<?xml version="1.0" encoding="UTF-8"?>
<svg id="Layer_1" data-name="Layer 1" xmlns="http://www.w3.org/2000/svg" viewBox="0 0 1080 1080">
  <defs>
    <style>
      .cls-1 {
        fill: #e5662f;
      }

      .cls-2 {
        fill: #feefd2;
      }
    </style>
  </defs>
  <rect id="back" class="cls-1" y="0" width="1080" height="1080" rx="257.73" ry="257.73"/>
  <path class="cls-2" d="M818.14,611.85c-60.41-12.37-108.75-24.02-147.35-34.5-34.71,3.67-75.19,9.23-116.31,17.62,31.04,12.16,76.45,26.95,142.73,43.42-50.55,39.64-78.03,62.71-79.6,64.08l-21.71,18.35,3.46,28.21,12.69,101.1c-102.66-29-205.4-62.28-258.04-85.63-32.49-19.33-38.34-46.46-13.83-71.07,4.51-3.93,9.3-7.84,14.33-11.72.18-.12.35-.25.53-.37,0,0,0-.02-.01-.02,82.42-63.4,230.64-120.02,336.84-156.29,7.24-2.52,13.21-7.55,16.88-14.37l59.36-111.8c3.15-5.87,4.3-12.59,3.15-19.09l-24.12-145.15c-1.68-9.86-7.97-18.14-16.99-22.34l-92.18-43.21c-7.03-3.25-15.1-3.78-22.34-1.36-129.31,42.79-217.61,91.66-268.79,125.01-34.08,22.23-56.84,58.1-62.29,98.48-14.05,103.3-39.75,310.95-28,359.72,10.17,41.95,94.28,73.83,153.64,91.24,114.84,40.27,263.65,79.07,263.65,79.07l-22.44-178.7s59.25-50.02,166.75-130.67ZM554.49,329.22c7.55-22.76,32.41-36.5,56.42-32.72,24.44,3.88,42.26,24.96,39.43,49.08-3.25,26.85-30.31,46.46-59.67,41-28.95-5.35-44.57-32.2-36.18-57.37Z"/>
</svg>