<?xml version="1.0" encoding="UTF-8"?>
<svg id="Layer_1" data-name="Layer 1" xmlns="http://www.w3.org/2000/svg" viewBox="0 0 1080 353.99">
  <defs>
    <style>
      .cls-1 {
        fill: #e5662f;
      }
    </style>
  </defs>
  <path class="cls-1" d="M264.71,208.94c-28.32-5.8-50.99-11.26-69.08-16.18-16.28,1.72-35.26,4.33-54.53,8.26,14.55,5.7,35.85,12.64,66.92,20.36-23.7,18.59-36.58,29.4-37.32,30.04l-10.18,8.6,1.62,13.23,5.95,47.4c-48.13-13.6-96.3-29.2-120.98-40.15-15.23-9.06-17.98-21.78-6.49-33.32,2.11-1.84,4.36-3.68,6.72-5.5.08-.06.16-.12.25-.17,0,0,0,0,0-.01,38.64-29.72,108.14-56.27,157.93-73.28,3.39-1.18,6.2-3.54,7.92-6.74l27.83-52.42c1.48-2.75,2.02-5.9,1.48-8.95l-11.31-68.05c-.79-4.62-3.74-8.51-7.97-10.47L180.23,1.34c-3.29-1.52-7.08-1.77-10.47-.64-60.63,20.06-102.03,42.97-126.02,58.61-15.98,10.42-26.65,27.24-29.21,46.17C7.94,153.92-4.11,251.28,1.4,274.14c4.77,19.67,44.2,34.62,72.03,42.78,53.84,18.88,123.61,37.07,123.61,37.07l-10.52-83.79s27.78-23.45,78.18-61.27ZM141.09,76.43c3.54-10.67,15.19-17.11,26.45-15.34,11.46,1.82,19.82,11.7,18.49,23.01-1.52,12.59-14.21,21.78-27.98,19.23-13.57-2.51-20.9-15.1-16.96-26.9Z"/>
  <g>
    <path class="cls-1" d="M322.44,283.35l26.34-212.55h80.87c16.52,0,30.05,2.28,40.59,6.82,10.53,4.55,18.02,11.98,22.46,22.31,4.44,10.33,5.52,23.96,3.25,40.9-1.86,15.08-6.15,27.73-12.86,37.96-6.71,10.23-16.37,17.82-28.97,22.77l24.79,81.8h-39.04l-21.69-74.36h-49.57l-9.3,74.36h-36.87ZM372.63,178.31h44.62c8.68,0,15.9-1.7,21.69-5.11,5.78-3.41,10.27-8.26,13.48-14.56,3.2-6.3,5.32-13.37,6.35-21.22,1.44-11.98-.31-20.91-5.27-26.8-4.96-5.89-13.74-8.83-26.34-8.83h-45.24l-9.3,76.53Z"/>
    <path class="cls-1" d="M546.76,286.76c-16.11,0-27.73-4.28-34.86-12.86-7.13-8.57-9.66-21.22-7.59-37.96,1.24-10.53,4.18-18.9,8.83-25.1,4.65-6.2,11.05-10.79,19.21-13.79,8.16-2.99,17.81-4.9,28.97-5.73l42.14-3.72,1.86-11.46c.82-8.26-.42-13.99-3.72-17.2-3.31-3.2-8.68-4.8-16.11-4.8-5.79,0-12.45.21-19.98.62-7.54.42-14.98.93-22.31,1.55-7.33.62-13.69,1.24-19.06,1.86v-26.03c5.37-1.03,11.82-2.12,19.36-3.25,7.54-1.13,15.34-2.12,23.39-2.94,8.06-.82,15.49-1.24,22.31-1.24,13.22,0,23.91,1.81,32.07,5.42,8.16,3.62,13.84,9.25,17.04,16.89,3.2,7.64,4.08,17.56,2.63,29.74l-9.29,72.81c-.21,3.52.98,6.04,3.56,7.59,2.58,1.55,5.73,2.63,9.45,3.25l-2.48,25.41c-2.89,0-5.89-.05-8.99-.15-3.1-.11-5.94-.26-8.52-.46-2.58-.21-4.8-.62-6.66-1.24-4.34-.62-8.01-1.86-11-3.72-3-1.86-5.32-3.72-6.97-5.58-4.14,1.86-9.14,3.67-15.03,5.42-5.89,1.76-12.19,3.3-18.9,4.65-6.71,1.34-13.17,2.01-19.36,2.01ZM555.13,259.49c4.75,0,9.71-.51,14.87-1.55,5.16-1.03,9.96-2.22,14.41-3.56,4.44-1.34,8.11-2.53,11-3.56l5.27-39.97-35.63,3.41c-7.85.62-13.79,3-17.82,7.13-4.03,4.13-6.46,9.81-7.28,17.04-.62,6.61.26,11.77,2.63,15.49,2.37,3.72,6.55,5.58,12.55,5.58Z"/>
    <path class="cls-1" d="M723.68,286.76c-4.96,0-11-.21-18.13-.62-7.13-.42-14.31-1.04-21.53-1.86-7.23-.83-13.63-1.44-19.21-1.86l26.34-219.06h35.94l-9.3,70.02c3.3-1.44,7.33-2.84,12.08-4.18,4.75-1.34,9.76-2.43,15.03-3.25,5.27-.82,10.07-1.24,14.41-1.24,14.66,0,25.97,2.89,33.93,8.68,7.95,5.79,13.11,14.62,15.49,26.49,2.37,11.88,2.53,26.91.46,45.08-2.48,20.25-6.77,36.36-12.86,48.33-6.1,11.98-14.82,20.56-26.18,25.72-11.36,5.16-26.86,7.75-46.48,7.75ZM724.61,256.08c11.77,0,20.91-2.01,27.42-6.04,6.51-4.03,11.31-10.02,14.41-17.97,3.1-7.95,5.27-18.02,6.51-30.21,1.44-11.15,1.75-20.14.93-26.96-.83-6.82-3.1-11.77-6.82-14.87-3.72-3.1-9.19-4.65-16.42-4.65-3.93,0-8.16.36-12.7,1.08-4.55.73-8.78,1.66-12.7,2.79-3.93,1.14-7.13,2.22-9.6,3.25l-12.7,92.02c3.1.42,6.97.77,11.62,1.08,4.65.31,8,.46,10.07.46Z"/>
    <path class="cls-1" d="M833.99,283.35l15.8-125.48h-16.73l3.41-29.75h16.73l1.55-11.46c1.86-14.66,4.59-26.18,8.21-34.55,3.61-8.37,8.78-14.15,15.49-17.35,6.71-3.2,15.54-4.8,26.49-4.8,3.3,0,7.28.21,11.93.62,4.65.42,9.09.83,13.32,1.24,4.23.42,7.28.83,9.14,1.24l-1.86,27.58c-3.51-.2-7.43-.31-11.77-.31h-10.53c-5.37,0-9.71.83-13.01,2.48-3.31,1.66-5.89,4.55-7.75,8.68-1.86,4.13-3.31,9.71-4.34,16.73l-1.24,9.91h39.66l-3.41,29.75h-39.66l-15.8,125.48h-35.63Z"/>
    <path class="cls-1" d="M957.92,349.66l28.19-66.31h-29.74l-19.83-155.23h36.56l15.49,124.87h8.98l46.17-124.87h36.25l-83.97,221.54h-38.11Z"/>
  </g>
</svg>